<?xml version="1.0" encoding="UTF-8"?>
<svg xmlns="http://www.w3.org/2000/svg" xmlns:xlink="http://www.w3.org/1999/xlink" width="2256" height="2256" viewBox="0 0 2256 2256">
<path fill-rule="evenodd" fill="rgb(0%, 100%, 0%)" fill-opacity="1" d="M 3 3 L 2253 3 L 2253 2253 L 3 2253 L 3 3 "/>
<path fill="none" stroke-width="59.9981" stroke-linecap="butt" stroke-linejoin="miter" stroke="rgb(0%, 0%, 0%)" stroke-opacity="1" stroke-miterlimit="22.9256" d="M 30 22530 L 22530 22530 L 22530 30 L 30 30 Z M 30 22530 " transform="matrix(0.1, 0, 0, -0.1, 0, 2256)"/>
<path fill-rule="evenodd" fill="rgb(0%, 0%, 0%)" fill-opacity="1" d="M 1421.46875 1393.054688 C 1335.390625 1390.710938 1283.269531 1396.523438 1265.121094 1410.496094 C 1274.710938 1394.179688 1311.671875 1385.667969 1376 1384.957031 C 1474.140625 1374.117188 1550.761719 1334.25 1605.859375 1265.355469 C 1618.140625 1243.710938 1633.5 1236.441406 1651.960938 1243.550781 C 1664.488281 1251.128906 1671.128906 1266.285156 1671.890625 1289.027344 C 1662.5 1260.007812 1650.460938 1253.148438 1635.761719 1268.46875 C 1588.769531 1336.160156 1517.339844 1377.691406 1421.46875 1393.054688 "/>
<path fill-rule="evenodd" fill="rgb(0%, 0%, 0%)" fill-opacity="1" d="M 1580.320312 1482.753906 C 1513.230469 1517.925781 1433.699219 1520.628906 1341.738281 1490.855469 C 1529.601562 1523.941406 1642.140625 1463.726562 1679.359375 1310.207031 C 1738.078125 1245.398438 1745.550781 1178.128906 1701.789062 1108.378906 C 1763.890625 1166.480469 1763.480469 1237.488281 1700.539062 1321.417969 C 1655.871094 1437.605469 1581.539062 1523.15625 1477.539062 1578.0625 C 1533.828125 1537.105469 1568.089844 1505.335938 1580.320312 1482.753906 "/>
<path fill-rule="evenodd" fill="rgb(0%, 0%, 0%)" fill-opacity="1" d="M 1477.539062 1632.878906 C 1445.699219 1784.15625 1354.339844 1859.324219 1203.449219 1858.378906 C 1305.449219 1854.230469 1396.808594 1779.066406 1477.539062 1632.878906 "/>
<path fill-rule="evenodd" fill="rgb(0%, 0%, 0%)" fill-opacity="1" d="M 1534.851562 1732.550781 C 1484.929688 1880.257812 1372.390625 1995.289062 1197.21875 2077.648438 C 1372.289062 1962.539062 1490.230469 1791.445312 1551.039062 1564.359375 C 1596.96875 1703.898438 1577.871094 1831.804688 1493.730469 1948.078125 C 1523.78125 1882.460938 1537.488281 1810.613281 1534.851562 1732.550781 "/>
<path fill-rule="evenodd" fill="rgb(0%, 0%, 0%)" fill-opacity="1" d="M 1617.070312 973.199219 C 1645.75 915.800781 1622.078125 851.640625 1546.058594 780.71875 C 1629.070312 832.699219 1668.109375 892.910156 1663.171875 961.371094 C 1686.890625 995.261719 1695.609375 1036.789062 1689.328125 1085.949219 C 1688.078125 1034.828125 1663.988281 997.25 1617.070312 973.199219 "/>
<path fill-rule="evenodd" fill="rgb(0%, 0%, 0%)" fill-opacity="1" d="M 1469.199219 875.96875 C 1454.039062 786.839844 1486.710938 745 1574.089844 726.53125 C 1532.589844 756.648438 1517.640625 777.621094 1529.238281 789.441406 C 1575.371094 826.621094 1595.089844 863.578125 1588.421875 900.320312 C 1582.480469 921.429688 1568.769531 936.460938 1547.28125 945.429688 C 1618.089844 995.351562 1655.269531 1034.300781 1658.808594 1062.28125 C 1659.179688 1078.058594 1655.441406 1087.199219 1647.589844 1089.691406 C 1641.878906 1100.109375 1642.710938 1113.191406 1650.089844 1128.929688 C 1650.878906 1150.320312 1639.039062 1168.589844 1614.578125 1183.75 C 1630.160156 1176.710938 1638.671875 1171.730469 1640.121094 1168.800781 C 1629.058594 1205.449219 1620.761719 1226.011719 1615.199219 1230.46875 C 1619.910156 1207.109375 1612.441406 1187.378906 1592.78125 1171.289062 C 1582.460938 1168.210938 1575.808594 1160.941406 1572.839844 1149.488281 C 1591.691406 1143.589844 1598.539062 1134.660156 1593.398438 1122.710938 C 1587.050781 1111.808594 1573.351562 1116.789062 1552.289062 1137.660156 C 1535.621094 1148.46875 1519.429688 1145.769531 1503.699219 1129.558594 C 1525.460938 1137.769531 1538.75 1130.300781 1543.570312 1107.128906 C 1544.628906 1081.601562 1557.300781 1067.679688 1581.558594 1065.398438 C 1610.570312 1066.441406 1625.101562 1061.671875 1625.171875 1051.070312 C 1620.25 1037.308594 1571.039062 987.898438 1477.539062 902.808594 C 1447.628906 873.109375 1435.789062 833.859375 1442.03125 785.078125 C 1441.578125 818.550781 1450.640625 848.839844 1469.199219 875.96875 Z M 1544.769531 943.671875 C 1582.460938 917.941406 1588.710938 886.050781 1563.5 848 C 1528.871094 799.289062 1500 784.75 1476.910156 804.390625 C 1469.398438 827.851562 1471.179688 857.308594 1482.269531 892.78125 C 1492.910156 904.929688 1505.660156 916.371094 1520.519531 927.109375 C 1528.988281 932.761719 1537.078125 938.269531 1544.769531 943.671875 Z M 1477.539062 838.03125 C 1478.601562 825.429688 1482.960938 821.480469 1490.621094 826.191406 C 1490.191406 840.101562 1496.421875 844.460938 1509.308594 839.269531 C 1514.660156 835.648438 1520.058594 845.410156 1525.5 868.550781 C 1526.828125 883.648438 1522.878906 890.5 1513.671875 889.109375 C 1492.21875 883.628906 1480.179688 866.601562 1477.539062 838.03125 "/>
<path fill-rule="evenodd" fill="rgb(0%, 0%, 0%)" fill-opacity="1" d="M 1511.800781 736.488281 C 1488.058594 693.738281 1434.070312 658.859375 1349.839844 631.839844 C 1455.171875 635.578125 1509.160156 670.460938 1511.800781 736.488281 "/>
<path fill-rule="evenodd" fill="rgb(0%, 0%, 0%)" fill-opacity="1" d="M 1081.980469 606.921875 C 1047.410156 594.960938 1022.078125 594.960938 1005.980469 606.921875 C 1020.03125 580.789062 1053.25 541.75 1105.648438 489.808594 C 1135.039062 458.210938 1170.339844 383.871094 1211.550781 266.808594 C 1238.988281 210.589844 1268.058594 181.109375 1298.761719 178.351562 C 1324.03125 183.128906 1339.808594 247.5 1346.101562 371.460938 C 1352.621094 441.570312 1370.058594 493.890625 1398.429688 528.441406 C 1420.539062 551.078125 1428.429688 585.128906 1422.101562 630.589844 C 1412.25 587.011719 1395.640625 551.300781 1372.261719 523.449219 C 1333.261719 465.550781 1311.25 407.828125 1306.230469 350.28125 C 1314.378906 278.070312 1304.820312 237.789062 1277.578125 229.429688 C 1258.640625 236.121094 1246.601562 262.28125 1241.449219 307.921875 C 1255.160156 297.960938 1264.710938 297.121094 1270.101562 305.429688 C 1238.578125 321.351562 1222.800781 346.890625 1222.761719 382.050781 C 1229.109375 368.691406 1239.078125 363.921875 1252.660156 367.71875 C 1227.820312 399.128906 1210.789062 433.179688 1201.578125 469.878906 C 1206.691406 454.601562 1217.910156 447.960938 1235.21875 449.949219 C 1208.558594 467.238281 1196.308594 489.671875 1198.46875 517.21875 C 1205.949219 543.988281 1224.019531 561.011719 1252.660156 568.300781 C 1287.699219 574.25 1311.371094 589.199219 1323.671875 613.148438 C 1290.859375 588.601562 1250.570312 578.210938 1202.828125 582.011719 C 1149.269531 585.289062 1124.148438 592.140625 1127.449219 602.558594 C 1135.300781 610.679688 1156.28125 612.550781 1190.371094 608.171875 C 1250.621094 601.539062 1284.050781 603.828125 1290.660156 615.019531 C 1292.230469 625.621094 1271.050781 631.019531 1227.121094 631.21875 C 1159.519531 630.878906 1111.140625 622.78125 1081.980469 606.921875 "/>
<path fill-rule="evenodd" fill="rgb(0%, 0%, 0%)" fill-opacity="1" d="M 981.6875 700.988281 C 950.851562 665.289062 910.777344 657.191406 861.464844 676.691406 C 920.046875 618 1001.859375 602.628906 1106.898438 630.589844 C 1153.429688 634.558594 1197.859375 638.710938 1240.199219 643.050781 C 1264.550781 645.578125 1300.46875 672.570312 1347.96875 724.03125 C 1364.519531 734.359375 1372.820312 735.808594 1372.890625 728.390625 C 1365.480469 712.558594 1347 689.511719 1317.449219 659.25 C 1309.21875 643.078125 1310.878906 633.738281 1322.429688 631.21875 C 1331.148438 626.800781 1349.628906 645.691406 1377.871094 687.898438 C 1411.421875 735.230469 1422.839844 763.671875 1412.128906 773.238281 C 1407.96875 782.378906 1392.609375 785.5 1366.03125 782.589844 C 1354.648438 793.429688 1340.320312 797.789062 1323.050781 795.671875 C 1300.550781 793.988281 1251.339844 773.441406 1175.421875 734 C 1141.691406 724.378906 1115.730469 726.660156 1097.550781 740.851562 C 1066.789062 751.988281 1028.171875 738.699219 981.6875 700.988281 Z M 984.179688 676.691406 C 958.464844 645.050781 953.894531 631.761719 970.476562 636.820312 C 1017.128906 644.410156 1048.890625 652.300781 1065.78125 660.5 C 1073.519531 668.550781 1093.460938 671.871094 1125.578125 670.460938 C 1186.101562 665.359375 1229.699219 670.761719 1256.398438 686.660156 C 1290.710938 702.910156 1310.640625 723.878906 1316.199219 749.570312 C 1314.871094 763.910156 1299.921875 762.871094 1271.351562 746.460938 C 1226.769531 716.699219 1188.980469 703.410156 1157.980469 706.589844 C 1087.039062 714.910156 1029.109375 704.941406 984.179688 676.691406 "/>
<path fill-rule="evenodd" fill="rgb(0%, 0%, 0%)" fill-opacity="1" d="M 1047.71875 1011.820312 C 1043.941406 1000.351562 1033.96875 1004.710938 1017.820312 1024.910156 C 1056.558594 929.808594 1113.449219 889.109375 1188.5 902.808594 C 1236.921875 917.191406 1282.808594 958.101562 1326.171875 1025.53125 C 1306.109375 1013.320312 1291.570312 1011.660156 1282.558594 1020.550781 C 1225.191406 1073.878906 1167.878906 1089.871094 1110.628906 1068.511719 C 1081.359375 1052.699219 1060.390625 1033.808594 1047.71875 1011.820312 Z M 1176.660156 1069.128906 C 1105.71875 1069.269531 1066.691406 1042.269531 1059.550781 988.148438 C 1073.808594 944.738281 1107.03125 921.480469 1159.21875 918.390625 C 1205.398438 922.191406 1234.050781 946.691406 1245.191406 991.890625 C 1245.441406 1035.390625 1222.601562 1061.140625 1176.660156 1069.128906 Z M 1147.390625 949.53125 C 1149.890625 952.140625 1149.890625 954.210938 1147.390625 955.761719 C 1146.75 963.859375 1149.660156 969.46875 1156.109375 972.578125 C 1163.25 972.628906 1166.988281 970.96875 1167.320312 967.601562 C 1169.96875 964.890625 1172.25 965.101562 1174.171875 968.21875 C 1182.421875 980.078125 1184.710938 996.691406 1181.03125 1018.050781 C 1176.808594 1024.269531 1169.539062 1025.941406 1159.21875 1023.039062 C 1134.75 1012.300781 1121.039062 995.070312 1118.109375 971.328125 C 1115.761719 955.339844 1120.328125 946.609375 1131.808594 945.171875 C 1138.769531 945.03125 1143.96875 946.488281 1147.390625 949.53125 "/>
<path fill-rule="evenodd" fill="rgb(0%, 0%, 0%)" fill-opacity="1" d="M 1455.730469 756.429688 C 1453.058594 715.5 1435.820312 691.621094 1404.03125 684.789062 C 1442.648438 685.148438 1461.550781 697.191406 1460.71875 720.921875 C 1459.300781 743.25 1457.640625 755.078125 1455.730469 756.429688 "/>
<path fill-rule="evenodd" fill="rgb(0%, 0%, 0%)" fill-opacity="1" d="M 1383.46875 1082.21875 C 1393.441406 1051.21875 1380.148438 1027.550781 1343.609375 1011.199219 C 1413.019531 1043.800781 1454.960938 1073.699219 1469.441406 1100.898438 C 1433.921875 1073.699219 1405.269531 1067.46875 1383.46875 1082.21875 "/>
<path fill-rule="evenodd" fill="rgb(0%, 0%, 0%)" fill-opacity="1" d="M 1151.75 1100.898438 C 1168.730469 1119.089844 1203.019531 1125.570312 1254.609375 1120.371094 C 1274.941406 1110.648438 1288.828125 1106.859375 1296.269531 1109 C 1323.898438 1111.988281 1344.25 1125.488281 1357.308594 1149.488281 C 1358.53125 1143.289062 1352.929688 1132.910156 1340.488281 1118.339844 C 1310.488281 1092.769531 1284.949219 1085.300781 1263.871094 1095.921875 C 1239.519531 1108.378906 1202.148438 1110.039062 1151.75 1100.898438 "/>
<path fill-rule="evenodd" fill="rgb(0%, 0%, 0%)" fill-opacity="1" d="M 623.507812 1790.480469 C 562.097656 1688.003906 538.21875 1589.722656 551.871094 1495.648438 C 560.402344 1655.128906 623.527344 1770.226562 741.238281 1840.9375 C 654.539062 1700.070312 617.996094 1571.332031 631.605469 1454.722656 C 666.152344 1501.574219 713.699219 1531.269531 774.253906 1543.800781 C 661.769531 1452.128906 610.691406 1364.503906 621.015625 1280.929688 C 655.683594 1374.382812 709.253906 1437.921875 781.730469 1471.542969 C 720.660156 1393.164062 690.347656 1293.082031 690.78125 1171.289062 C 729.730469 1225.839844 775.414062 1229.578125 827.828125 1182.511719 C 855.226562 1146.109375 871.839844 1119.941406 877.660156 1104.019531 C 870.054688 1160.730469 851.367188 1207.238281 821.597656 1243.550781 C 858.9375 1248.011719 888.421875 1229.738281 910.054688 1188.738281 C 922.125 1091.921875 961.164062 1047.898438 1027.160156 1056.671875 C 1005.390625 1115.210938 1014.53125 1152.589844 1054.570312 1168.800781 C 1094.308594 1179.511719 1152.039062 1171.609375 1227.738281 1145.128906 C 1179.640625 1191.808594 1112.371094 1216.730469 1025.921875 1219.878906 C 1032.320312 1276.710938 1016.539062 1317.410156 978.574219 1341.976562 C 1012.238281 1249.648438 1007.261719 1198.570312 963.625 1188.738281 C 910.839844 1281.015625 847.300781 1323.371094 773.007812 1315.8125 C 780.226562 1411.324219 824.660156 1471.125 906.316406 1495.214844 C 949.296875 1505.515625 1001.210938 1507.175781 1062.050781 1500.199219 C 992.59375 1528.128906 914.933594 1528.542969 829.070312 1501.441406 C 874.433594 1557.921875 942.953125 1581.179688 1034.640625 1571.210938 C 947.671875 1594.457031 874.578125 1593.210938 815.367188 1567.472656 C 937.691406 1670.753906 1078.890625 1708.957031 1238.960938 1682.09375 C 1059.609375 1729.976562 851.898438 1693.78125 709.472656 1573.703125 C 705.367188 1684.320312 737.761719 1783.15625 806.648438 1870.214844 C 870.816406 1937.074219 946.398438 1980.679688 1033.390625 2001.027344 C 862.378906 1989.699219 725.75 1919.515625 623.507812 1790.480469 "/>
<path fill-rule="evenodd" fill="rgb(0%, 0%, 0%)" fill-opacity="1" d="M 1185.378906 1641.601562 C 1149.289062 1637.441406 1115.230469 1619.789062 1083.230469 1588.652344 C 1187.628906 1629.164062 1266.949219 1622.3125 1321.179688 1568.097656 C 1287 1616.085938 1241.738281 1640.585938 1185.378906 1641.601562 "/>
<path fill-rule="evenodd" fill="rgb(0%, 0%, 0%)" fill-opacity="1" d="M 424.171875 1900.113281 C 383.6875 1857.300781 358.769531 1809.128906 349.421875 1755.597656 C 440.765625 1899.777344 581.132812 1989.066406 770.515625 2023.453125 C 613.535156 2014.203125 498.089844 1973.089844 424.171875 1900.113281 "/>
<path fill-rule="evenodd" fill="rgb(0%, 0%, 0%)" fill-opacity="1" d="M 398.632812 1094.050781 C 398.363281 1043.890625 418.089844 1005.269531 457.808594 978.191406 C 453.722656 1046.230469 477.808594 1089 530.070312 1106.511719 C 502.277344 1203.859375 524.703125 1307.265625 597.34375 1416.726562 C 510.40625 1344.65625 452.683594 1253.710938 424.171875 1143.878906 C 372.085938 1374.695312 416.105469 1586.90625 556.230469 1780.515625 C 396.238281 1620.191406 332.28125 1434.144531 364.371094 1222.371094 C 301.117188 1360.59375 291.152344 1516.53125 334.46875 1690.1875 C 278.472656 1604.796875 263.730469 1475.019531 290.242188 1300.863281 C 221.648438 1452.15625 200.46875 1610.378906 226.703125 1775.53125 C 234.085938 1849.796875 269.796875 1930.359375 333.847656 2017.226562 C 222.042969 1884.203125 168.054688 1741.347656 171.886719 1588.652344 C 187.941406 1433.730469 208.289062 1348.597656 232.933594 1333.253906 C 173.933594 1363.140625 129.085938 1474.4375 98.382812 1667.140625 C 85.25 1469.503906 138.40625 1329.140625 257.851562 1246.039062 C 289.875 1176.398438 336.800781 1125.738281 398.632812 1094.050781 "/>
<path fill-rule="evenodd" fill="rgb(0%, 0%, 0%)" fill-opacity="1" d="M 673.964844 1128.929688 C 747.128906 1164.558594 814.09375 1112.058594 864.578125 1061.039062 C 826.832031 1069.421875 796.933594 1066.71875 774.878906 1052.941406 C 802.042969 1047.679688 819.070312 1037.710938 825.957031 1023.039062 C 809.804688 1036.75 782.808594 1041.320312 744.976562 1036.738281 C 749.828125 1062.269531 771.839844 1077.21875 811.007812 1081.589844 C 765.015625 1126.398438 719.332031 1142.179688 673.964844 1128.929688 "/>
<path fill-rule="evenodd" fill="rgb(0%, 0%, 0%)" fill-opacity="1" d="M 707.601562 986.910156 C 685.953125 965.339844 663.113281 959.949219 639.078125 970.710938 C 659.546875 989.699219 664.945312 1026.449219 655.277344 1080.96875 C 670.191406 1059.851562 677.871094 1029.328125 678.324219 989.398438 C 690.871094 993.160156 700.421875 1001.460938 706.980469 1014.320312 C 728.496094 997.96875 739.296875 974.511719 739.371094 943.929688 C 754.785156 945.5 766.621094 957.75 774.878906 980.679688 C 781.9375 947.261719 760.550781 924.628906 710.714844 912.78125 C 733.730469 936.941406 722.773438 984.730469 707.601562 986.910156 "/>
<path fill-rule="evenodd" fill="rgb(0%, 0%, 0%)" fill-opacity="1" d="M 1177.910156 1224.859375 C 1101.390625 1242.960938 1069 1273.484375 1080.730469 1316.433594 C 1096.75 1274.574219 1129.140625 1244.050781 1177.910156 1224.859375 "/>
<path fill-rule="evenodd" fill="rgb(0%, 0%, 0%)" fill-opacity="1" d="M 705.109375 838.03125 C 756.269531 853.199219 779.941406 877.070312 776.121094 909.671875 C 799.996094 890.371094 810.796875 855.898438 808.515625 806.261719 C 809.523438 766.898438 831.53125 743.230469 874.546875 735.25 C 906.125 733.980469 935.195312 748.929688 961.753906 780.101562 C 943.859375 729.339844 908.976562 699.03125 857.105469 689.148438 C 832.019531 684.871094 768.066406 637.941406 665.242188 548.371094 C 561.898438 462.851562 487.5625 444.988281 442.234375 494.800781 C 387.15625 545.308594 396.679688 809.269531 444.726562 853.601562 C 463.554688 954.949219 483.28125 1012.460938 503.90625 1026.148438 C 522.789062 1045.488281 535.871094 1059.398438 543.148438 1067.890625 C 556.234375 1087.820312 560.386719 1108.378906 555.609375 1129.558594 C 540.484375 1188.359375 549.621094 1236.738281 583.015625 1274.699219 C 562.152344 1217.378906 560.699219 1167.75 578.65625 1125.820312 C 578.335938 1149.761719 580.828125 1162.011719 586.132812 1162.570312 C 587.914062 1140.679688 600.789062 1116.800781 624.753906 1090.941406 C 637.488281 1078.179688 639.359375 1059.910156 630.359375 1036.121094 C 594.121094 988.558594 579.589844 952.839844 586.753906 928.980469 C 562.511719 945.828125 557.941406 974.898438 573.050781 1016.191406 C 525.300781 984 498.101562 942.058594 491.445312 890.351562 C 446.171875 810.078125 426.859375 732.011719 433.515625 656.140625 C 443.328125 552.730469 464.507812 502.890625 497.054688 506.628906 C 545.171875 517.148438 588.773438 543.730469 627.867188 586.371094 C 598.761719 577.308594 575.503906 576.480469 558.101562 583.878906 C 620.84375 587.648438 661.125 611.320312 678.945312 654.890625 C 642.515625 647.75 618.84375 652.738281 607.933594 669.839844 C 665.886719 666.558594 703.261719 693.558594 720.058594 750.820312 C 696.570312 742.398438 677.882812 742.398438 663.996094 750.820312 C 718.234375 754.808594 747.304688 784.289062 751.207031 839.269531 C 725.886719 827.46875 710.519531 827.058594 705.109375 838.03125 "/>
<path fill-rule="evenodd" fill="rgb(0%, 0%, 0%)" fill-opacity="1" d="M 1860.570312 1068.710938 C 1776.769531 1104.988281 1734.878906 1123.128906 1734.878906 1123.128906 C 1855.050781 1055.75 1963.601562 1020.171875 2060.519531 1016.390625 C 2111.769531 1017.800781 2144.789062 1020.5 2159.570312 1024.488281 C 2076.960938 1009.128906 1977.289062 1023.878906 1860.570312 1068.710938 "/>
<path fill-rule="evenodd" fill="rgb(0%, 0%, 0%)" fill-opacity="1" d="M 2132.230469 1063.53125 C 2023.601562 1047.371094 1891.960938 1073.949219 1737.300781 1143.261719 C 1889.691406 1065.359375 2021.339844 1038.78125 2132.230469 1063.53125 "/>
<path fill-rule="evenodd" fill="rgb(0%, 0%, 0%)" fill-opacity="1" d="M 2145.621094 1142.441406 C 2049.070312 1114.980469 1918.210938 1126.601562 1753.058594 1177.320312 C 1906.609375 1120.800781 2037.460938 1109.171875 2145.621094 1142.441406 "/>
<path fill-rule="evenodd" fill="rgb(0%, 0%, 0%)" fill-opacity="1" d="M 2142.191406 1206.75 C 2050.238281 1166.480469 1919.011719 1160.308594 1748.519531 1188.230469 C 1908.300781 1152.988281 2039.519531 1159.160156 2142.191406 1206.75 "/>
<path fill-rule="evenodd" fill="rgb(0%, 0%, 0%)" fill-opacity="1" d="M 2125.898438 1248.921875 C 2041.300781 1201.5 1916.78125 1184.96875 1752.351562 1199.320312 C 1907.121094 1176.828125 2031.640625 1193.359375 2125.898438 1248.921875 "/>
<path fill-rule="evenodd" fill="rgb(0%, 0%, 0%)" fill-opacity="1" d="M 2083.640625 1332.378906 C 2014.96875 1273.671875 1905.75 1237.828125 1755.980469 1224.871094 C 1898.320312 1228.539062 2007.539062 1264.375 2083.640625 1332.378906 "/>
<path fill-rule="evenodd" fill="rgb(0%, 0%, 0%)" fill-opacity="1" d="M 2079.871094 1399.628906 C 2013.921875 1331.5 1905.039062 1282.382812 1753.238281 1252.28125 C 1898.121094 1271.980469 2006.988281 1321.097656 2079.871094 1399.628906 "/>
<path fill-rule="evenodd" fill="rgb(0%, 0%, 0%)" fill-opacity="1" d="M 1174.089844 1313.0625 C 1254.910156 1282.390625 1295.320312 1267.054688 1295.320312 1267.054688 C 1171.429688 1300.136719 1072.660156 1347.976562 999.015625 1410.574219 C 961.851562 1446.09375 938.84375 1470.246094 929.984375 1483.039062 C 983.089844 1416.492188 1064.449219 1359.832031 1174.089844 1313.0625 "/>
<path fill-rule="evenodd" fill="rgb(0%, 0%, 0%)" fill-opacity="1" d="M 980.441406 1479.722656 C 1054 1392.519531 1167.691406 1320.621094 1321.53125 1264.03125 C 1164.839844 1312.761719 1051.148438 1384.660156 980.441406 1479.722656 "/>
<path fill-rule="evenodd" fill="rgb(0%, 0%, 0%)" fill-opacity="1" d="M 1018.929688 1576.070312 C 1072.011719 1484.621094 1177.121094 1392.675781 1334.261719 1300.238281 C 1181.800781 1380.046875 1076.691406 1471.992188 1018.929688 1576.070312 "/>
<path fill-rule="evenodd" fill="rgb(0%, 0%, 0%)" fill-opacity="1" d="M 1075.808594 1589.988281 C 1121.609375 1496.707031 1212.929688 1401.132812 1349.78125 1303.265625 C 1216.941406 1388.34375 1125.621094 1483.917969 1075.808594 1589.988281 "/>
<path fill-rule="evenodd" fill="rgb(0%, 0%, 0%)" fill-opacity="1" d="M 1118.949219 1632.375 C 1155.839844 1538.972656 1237.089844 1440.46875 1362.699219 1336.875 C 1239.921875 1427.808594 1158.671875 1526.308594 1118.949219 1632.375 "/>
<path fill-rule="evenodd" fill="rgb(0%, 0%, 0%)" fill-opacity="1" d="M 1203.449219 1668.386719 C 1223.039062 1573.460938 1266.121094 1470.210938 1366.730469 1351.410156 C 1266.761719 1457.691406 1223.679688 1560.9375 1203.449219 1668.386719 "/>
<path fill-rule="evenodd" fill="rgb(0%, 0%, 0%)" fill-opacity="1" d="M 1270.199219 1662.046875 C 1278.238281 1565.882812 1325.929688 1451.777344 1413.269531 1319.734375 C 1325.011719 1439.390625 1277.320312 1553.492188 1270.199219 1662.046875 "/>
<path fill-rule="evenodd" fill="rgb(0%, 0%, 0%)" fill-opacity="1" d="M 1333.179688 1244.070312 C 1338.300781 1241.980469 1343.5 1242.839844 1344.789062 1245.988281 C 1346.070312 1249.148438 1342.960938 1253.398438 1337.839844 1255.488281 C 1332.71875 1257.582031 1327.519531 1256.722656 1326.230469 1253.570312 C 1324.949219 1250.421875 1328.058594 1246.171875 1333.179688 1244.070312 "/>
<path fill-rule="evenodd" fill="rgb(0%, 0%, 0%)" fill-opacity="1" d="M 1380.019531 1220.78125 C 1385.371094 1219.351562 1390.410156 1220.859375 1391.289062 1224.160156 C 1392.160156 1227.449219 1388.539062 1231.269531 1383.191406 1232.691406 C 1377.851562 1234.121094 1372.800781 1232.601562 1371.921875 1229.308594 C 1371.050781 1226.019531 1374.671875 1222.199219 1380.019531 1220.78125 "/>
<path fill-rule="evenodd" fill="rgb(0%, 0%, 0%)" fill-opacity="1" d="M 1423.640625 1206.308594 C 1429.101562 1205.460938 1433.960938 1207.488281 1434.488281 1210.859375 C 1435.011719 1214.21875 1431.011719 1217.640625 1425.539062 1218.5 C 1420.070312 1219.351562 1415.21875 1217.320312 1414.691406 1213.949219 C 1414.160156 1210.589844 1418.171875 1207.171875 1423.640625 1206.308594 "/>
<path fill-rule="evenodd" fill="rgb(0%, 0%, 0%)" fill-opacity="1" d="M 1464.300781 1193.121094 C 1468.75 1192.421875 1472.710938 1194.078125 1473.140625 1196.820312 C 1473.570312 1199.558594 1470.300781 1202.339844 1465.851562 1203.039062 C 1461.398438 1203.730469 1457.449219 1202.078125 1457.019531 1199.339844 C 1456.589844 1196.601562 1459.851562 1193.820312 1464.300781 1193.121094 "/>
<path fill-rule="evenodd" fill="rgb(0%, 0%, 0%)" fill-opacity="1" d="M 1485.25 1216.160156 C 1489.878906 1214.699219 1494.371094 1215.820312 1495.269531 1218.671875 C 1496.171875 1221.53125 1493.148438 1225.019531 1488.511719 1226.488281 C 1483.878906 1227.949219 1479.390625 1226.828125 1478.488281 1223.980469 C 1477.589844 1221.128906 1480.621094 1217.628906 1485.25 1216.160156 "/>
<path fill-rule="evenodd" fill="rgb(0%, 0%, 0%)" fill-opacity="1" d="M 1442.269531 1238.390625 C 1446.898438 1236.921875 1451.390625 1238.050781 1452.289062 1240.898438 C 1453.191406 1243.75 1450.160156 1247.25 1445.53125 1248.71875 C 1440.898438 1250.179688 1436.410156 1249.058594 1435.511719 1246.210938 C 1434.609375 1243.351562 1437.628906 1239.859375 1442.269531 1238.390625 "/>
<path fill-rule="evenodd" fill="rgb(0%, 0%, 0%)" fill-opacity="1" d="M 1397.421875 1259.570312 C 1402.050781 1258.105469 1406.539062 1259.226562 1407.441406 1262.078125 C 1408.339844 1264.933594 1405.308594 1268.429688 1400.679688 1269.894531 C 1396.050781 1271.359375 1391.558594 1270.238281 1390.660156 1267.386719 C 1389.761719 1264.535156 1392.78125 1261.035156 1397.421875 1259.570312 "/>
<path fill-rule="evenodd" fill="rgb(0%, 0%, 0%)" fill-opacity="1" d="M 1450.988281 1276.390625 C 1455.621094 1274.925781 1460.109375 1276.046875 1461.011719 1278.898438 C 1461.910156 1281.75 1458.890625 1285.25 1454.25 1286.714844 C 1449.621094 1288.179688 1445.128906 1287.054688 1444.230469 1284.203125 C 1443.328125 1281.351562 1446.351562 1277.855469 1450.988281 1276.390625 "/>
<path fill-rule="evenodd" fill="rgb(0%, 0%, 0%)" fill-opacity="1" d="M 1484.628906 1250.851562 C 1489.261719 1249.378906 1493.75 1250.511719 1494.648438 1253.359375 C 1495.550781 1256.210938 1492.519531 1259.710938 1487.890625 1261.175781 C 1483.261719 1262.640625 1478.769531 1261.515625 1477.871094 1258.664062 C 1476.96875 1255.808594 1479.988281 1252.308594 1484.628906 1250.851562 "/>
<path fill-rule="evenodd" fill="rgb(0%, 0%, 0%)" fill-opacity="1" d="M 1413.320312 1302.089844 C 1417.949219 1300.625 1422.441406 1301.746094 1423.339844 1304.601562 C 1424.238281 1307.449219 1421.21875 1310.949219 1416.578125 1312.414062 C 1411.949219 1313.878906 1407.460938 1312.757812 1406.558594 1309.90625 C 1405.660156 1307.054688 1408.691406 1303.554688 1413.320312 1302.089844 "/>
<path fill-rule="evenodd" fill="rgb(0%, 0%, 0%)" fill-opacity="1" d="M 1358.171875 1286.976562 C 1362.800781 1285.511719 1367.289062 1286.636719 1368.191406 1289.488281 C 1369.101562 1292.339844 1366.070312 1295.839844 1361.441406 1297.304688 C 1356.800781 1298.769531 1352.320312 1297.644531 1351.410156 1294.792969 C 1350.511719 1291.941406 1353.539062 1288.441406 1358.171875 1286.976562 "/>
<path fill-rule="evenodd" fill="rgb(0%, 0%, 0%)" fill-opacity="1" d="M 1374.988281 1330.582031 C 1379.621094 1329.117188 1384.109375 1330.242188 1385.011719 1333.09375 C 1385.910156 1335.945312 1382.890625 1339.445312 1378.261719 1340.910156 C 1373.621094 1342.375 1369.140625 1341.25 1368.230469 1338.398438 C 1367.328125 1335.546875 1370.359375 1332.046875 1374.988281 1330.582031 "/>
</svg>
